<?xml version="1.0" encoding="UTF-8" standalone="no"?>
<!DOCTYPE svg PUBLIC "-//W3C//DTD SVG 1.1//EN" "http://www.w3.org/Graphics/SVG/1.1/DTD/svg11.dtd">
<!-- Created with Vectornator (http://vectornator.io/) -->
<svg height="100%" stroke-miterlimit="10" style="fill-rule:nonzero;clip-rule:evenodd;stroke-linecap:round;stroke-linejoin:round;" version="1.1" viewBox="0 0 2268 2268" width="100%" xml:space="preserve" xmlns="http://www.w3.org/2000/svg" xmlns:vectornator="http://vectornator.io" xmlns:xlink="http://www.w3.org/1999/xlink">
<defs>
<linearGradient gradientTransform="matrix(2259.25 0 0 2259.25 4.38301 1133.99)" gradientUnits="userSpaceOnUse" id="LinearGradient" x1="0" x2="1" y1="0" y2="0">
<stop offset="0" stop-color="#081e91"/>
<stop offset="1" stop-color="#004ecf"/>
</linearGradient>
</defs>
<clipPath id="ArtboardFrame">
<rect height="2268" width="2268" x="0" y="0"/>
</clipPath>
<g clip-path="url(#ArtboardFrame)" id="Back" vectornator:layerName="Back">
<g opacity="1" vectornator:layerName="Group 1">
<path d="M456.224 117.336L343.275 230.286L230.282 343.278L117.333 456.228L4.38301 569.177L117.333 682.17L4.38301 795.12L117.333 908.069L4.38301 1021.02L117.333 1134.01L230.282 1246.96L343.275 1359.91L456.224 1472.9L569.174 1585.85L682.123 1698.8L795.116 1811.79L908.066 1924.74L1021.02 2037.69L1134.01 2150.64L1246.96 2037.69L1359.91 1924.74L1472.9 1811.79L1585.85 1698.8L1698.8 1585.85L1811.79 1472.9L1924.74 1359.91L2037.69 1246.96L2150.64 1134.01L2263.63 1021.02L2150.64 908.069L2263.63 795.12L2150.64 682.17L2263.63 569.177L2150.64 456.228L2037.69 343.278L1924.74 230.286L1811.79 117.336L1698.8 230.286L1585.85 117.336L1472.9 230.286L1359.91 343.278L1246.96 456.228L1134.01 569.177L1021.02 456.228L908.066 343.278L795.116 230.286L682.123 117.336L569.174 230.286L456.224 117.336Z" fill="url(#LinearGradient)" fill-rule="nonzero" opacity="1" stroke="#263c53" stroke-linecap="butt" stroke-linejoin="round" stroke-width="12" vectornator:layerName="Curve 1"/>
</g>
</g>
<g clip-path="url(#ArtboardFrame)" id="Layer-1" vectornator:layerName="Layer 1">
<g opacity="1" vectornator:layerName="Group 1">
<path d="M1133.99 569.187L1246.96 682.149L1133.99 795.112L1021.03 682.149L1133.99 569.187Z" fill="#ffffff" fill-opacity="0" fill-rule="nonzero" opacity="1" stroke="#000000" stroke-linecap="butt" stroke-linejoin="round" stroke-width="12" vectornator:layerName="Rectangle 9"/>
<path d="M1021.03 456.224L1133.99 569.187L1021.03 682.149L908.069 569.187L1021.03 456.224Z" fill="#ffffff" fill-opacity="0" fill-rule="nonzero" opacity="1" stroke="#000000" stroke-linecap="butt" stroke-linejoin="round" stroke-width="12" vectornator:layerName="Rectangle 11"/>
<path d="M1246.96 456.224L1359.92 569.187L1246.96 682.149L1133.99 569.187L1246.96 456.224Z" fill="#ffffff" fill-opacity="0" fill-rule="nonzero" opacity="1" stroke="#000000" stroke-linecap="butt" stroke-linejoin="round" stroke-width="12" vectornator:layerName="Rectangle 10"/>
<path d="M1359.92 343.261L1472.88 456.224L1359.92 569.187L1246.96 456.224L1359.92 343.261Z" fill="#ffffff" fill-opacity="0" fill-rule="nonzero" opacity="1" stroke="#000000" stroke-linecap="butt" stroke-linejoin="round" stroke-width="12" vectornator:layerName="Rectangle 12"/>
<path d="M1472.88 456.224L1585.84 569.187L1472.88 682.149L1359.92 569.187L1472.88 456.224Z" fill="#ffffff" fill-opacity="0" fill-rule="nonzero" opacity="1" stroke="#000000" stroke-linecap="butt" stroke-linejoin="round" stroke-width="12" vectornator:layerName="Rectangle 13"/>
<path d="M1359.92 569.187L1472.88 682.149L1359.92 795.112L1246.96 682.149L1359.92 569.187Z" fill="#ffffff" fill-opacity="0" fill-rule="nonzero" opacity="1" stroke="#000000" stroke-linecap="butt" stroke-linejoin="round" stroke-width="12" vectornator:layerName="Rectangle 14"/>
<path d="M1246.96 682.149L1359.92 795.112L1246.96 908.075L1133.99 795.112L1246.96 682.149Z" fill="#ffffff" fill-opacity="0" fill-rule="nonzero" opacity="1" stroke="#000000" stroke-linecap="butt" stroke-linejoin="round" stroke-width="12" vectornator:layerName="Rectangle 15"/>
<path d="M1133.99 795.112L1246.96 908.075L1133.99 1021.04L1021.03 908.075L1133.99 795.112Z" fill="#ffffff" fill-opacity="0" fill-rule="nonzero" opacity="1" stroke="#000000" stroke-linecap="butt" stroke-linejoin="round" stroke-width="12" vectornator:layerName="Rectangle 16"/>
<path d="M1021.03 682.149L1133.99 795.112L1021.03 908.075L908.069 795.112L1021.03 682.149Z" fill="#ffffff" fill-opacity="0" fill-rule="nonzero" opacity="1" stroke="#000000" stroke-linecap="butt" stroke-linejoin="round" stroke-width="12" vectornator:layerName="Rectangle 17"/>
<path d="M908.069 569.187L1021.03 682.149L908.069 795.112L795.106 682.149L908.069 569.187Z" fill="#ffffff" fill-opacity="0" fill-rule="nonzero" opacity="1" stroke="#000000" stroke-linecap="butt" stroke-linejoin="round" stroke-width="12" vectornator:layerName="Rectangle 18"/>
<path d="M795.106 456.224L908.069 569.187L795.106 682.149L682.143 569.187L795.106 456.224Z" fill="#ffffff" fill-opacity="0" fill-rule="nonzero" opacity="1" stroke="#000000" stroke-linecap="butt" stroke-linejoin="round" stroke-width="12" vectornator:layerName="Rectangle 19"/>
<path d="M908.069 343.261L1021.03 456.224L908.069 569.187L795.106 456.224L908.069 343.261Z" fill="#ffffff" fill-opacity="0" fill-rule="nonzero" opacity="1" stroke="#000000" stroke-linecap="butt" stroke-linejoin="round" stroke-width="12" vectornator:layerName="Rectangle 20"/>
<path d="M795.106 230.299L908.069 343.261L795.106 456.224L682.143 343.261L795.106 230.299Z" fill="#ffffff" fill-opacity="0" fill-rule="nonzero" opacity="1" stroke="#000000" stroke-linecap="butt" stroke-linejoin="round" stroke-width="12" vectornator:layerName="Rectangle 21"/>
<path d="M682.143 343.261L795.106 456.224L682.143 569.187L569.181 456.224L682.143 343.261Z" fill="#ffffff" fill-opacity="0" fill-rule="nonzero" opacity="1" stroke="#000000" stroke-linecap="butt" stroke-linejoin="round" stroke-width="12" vectornator:layerName="Rectangle 22"/>
<path d="M569.181 456.224L682.143 569.187L569.181 682.149L456.218 569.187L569.181 456.224Z" fill="#ffffff" fill-opacity="0" fill-rule="nonzero" opacity="1" stroke="#000000" stroke-linecap="butt" stroke-linejoin="round" stroke-width="12" vectornator:layerName="Rectangle 23"/>
<path d="M682.143 569.187L795.106 682.149L682.143 795.112L569.181 682.149L682.143 569.187Z" fill="#ffffff" fill-opacity="0" fill-rule="nonzero" opacity="1" stroke="#000000" stroke-linecap="butt" stroke-linejoin="round" stroke-width="12" vectornator:layerName="Rectangle 24"/>
<path d="M795.106 682.149L908.069 795.112L795.106 908.075L682.143 795.112L795.106 682.149Z" fill="#ffffff" fill-opacity="0" fill-rule="nonzero" opacity="1" stroke="#000000" stroke-linecap="butt" stroke-linejoin="round" stroke-width="12" vectornator:layerName="Rectangle 25"/>
<path d="M908.069 795.112L1021.03 908.075L908.069 1021.04L795.106 908.075L908.069 795.112Z" fill="#ffffff" fill-opacity="0" fill-rule="nonzero" opacity="1" stroke="#000000" stroke-linecap="butt" stroke-linejoin="round" stroke-width="12" vectornator:layerName="Rectangle 26"/>
<path d="M1021.03 908.075L1133.99 1021.04L1021.03 1134L908.069 1021.04L1021.03 908.075Z" fill="#ffffff" fill-opacity="0" fill-rule="nonzero" opacity="1" stroke="#000000" stroke-linecap="butt" stroke-linejoin="round" stroke-width="12" vectornator:layerName="Rectangle 27"/>
<path d="M1133.99 1021.04L1246.96 1134L1133.99 1246.96L1021.03 1134L1133.99 1021.04Z" fill="#ffffff" fill-opacity="0" fill-rule="nonzero" opacity="1" stroke="#000000" stroke-linecap="butt" stroke-linejoin="round" stroke-width="12" vectornator:layerName="Rectangle 28"/>
<path d="M908.069 1021.04L1021.03 1134L908.069 1246.96L795.106 1134L908.069 1021.04Z" fill="#ffffff" fill-opacity="0" fill-rule="nonzero" opacity="1" stroke="#000000" stroke-linecap="butt" stroke-linejoin="round" stroke-width="12" vectornator:layerName="Rectangle 36"/>
<path d="M1021.03 1134L1133.99 1246.96L1021.03 1359.93L908.069 1246.96L1021.03 1134Z" fill="#ffffff" fill-opacity="0" fill-rule="nonzero" opacity="1" stroke="#000000" stroke-linecap="butt" stroke-linejoin="round" stroke-width="12" vectornator:layerName="Rectangle 37"/>
<path d="M1246.96 1134L1359.92 1246.96L1246.96 1359.93L1133.99 1246.96L1246.96 1134Z" fill="#ffffff" fill-opacity="0" fill-rule="nonzero" opacity="1" stroke="#000000" stroke-linecap="butt" stroke-linejoin="round" stroke-width="12" vectornator:layerName="Rectangle 38"/>
<path d="M1246.96 1134L1359.92 1246.96L1246.96 1359.93L1133.99 1246.96L1246.96 1134Z" fill="#ffffff" fill-opacity="0" fill-rule="nonzero" opacity="1" stroke="#000000" stroke-linecap="butt" stroke-linejoin="round" stroke-width="12" vectornator:layerName="Rectangle 39"/>
<path d="M1359.92 1021.04L1472.88 1134L1359.92 1246.96L1246.96 1134L1359.92 1021.04Z" fill="#ffffff" fill-opacity="0" fill-rule="nonzero" opacity="1" stroke="#000000" stroke-linecap="butt" stroke-linejoin="round" stroke-width="12" vectornator:layerName="Rectangle 40"/>
<path d="M1246.96 908.075L1359.92 1021.04L1246.96 1134L1133.99 1021.04L1246.96 908.075Z" fill="#ffffff" fill-opacity="0" fill-rule="nonzero" opacity="1" stroke="#000000" stroke-linecap="butt" stroke-linejoin="round" stroke-width="12" vectornator:layerName="Rectangle 29"/>
<path d="M1359.92 795.112L1472.88 908.075L1359.92 1021.04L1246.96 908.075L1359.92 795.112Z" fill="#ffffff" fill-opacity="0" fill-rule="nonzero" opacity="1" stroke="#000000" stroke-linecap="butt" stroke-linejoin="round" stroke-width="12" vectornator:layerName="Rectangle 30"/>
<path d="M1472.88 682.149L1585.84 795.112L1472.88 908.075L1359.92 795.112L1472.88 682.149Z" fill="#ffffff" fill-opacity="0" fill-rule="nonzero" opacity="1" stroke="#000000" stroke-linecap="butt" stroke-linejoin="round" stroke-width="12" vectornator:layerName="Rectangle 31"/>
<path d="M1585.84 569.187L1698.81 682.149L1585.84 795.112L1472.88 682.149L1585.84 569.187Z" fill="#ffffff" fill-opacity="0" fill-rule="nonzero" opacity="1" stroke="#000000" stroke-linecap="butt" stroke-linejoin="round" stroke-width="12" vectornator:layerName="Rectangle 32"/>
<path d="M1698.81 456.224L1811.77 569.187L1698.81 682.149L1585.84 569.187L1698.81 456.224Z" fill="#ffffff" fill-opacity="0" fill-rule="nonzero" opacity="1" stroke="#000000" stroke-linecap="butt" stroke-linejoin="round" stroke-width="12" vectornator:layerName="Rectangle 33"/>
<path d="M1585.84 343.261L1698.81 456.224L1585.84 569.187L1472.88 456.224L1585.84 343.261Z" fill="#ffffff" fill-opacity="0" fill-rule="nonzero" opacity="1" stroke="#000000" stroke-linecap="butt" stroke-linejoin="round" stroke-width="12" vectornator:layerName="Rectangle 34"/>
<path d="M1472.88 230.299L1585.84 343.261L1472.88 456.224L1359.92 343.261L1472.88 230.299Z" fill="#ffffff" fill-opacity="0" fill-rule="nonzero" opacity="1" stroke="#000000" stroke-linecap="butt" stroke-linejoin="round" stroke-width="12" vectornator:layerName="Rectangle 35"/>
<path d="M1133.99 1246.96L1246.96 1359.93L1133.99 1472.89L1021.03 1359.93L1133.99 1246.96Z" fill="#ffffff" fill-opacity="0" fill-rule="nonzero" opacity="1" stroke="#000000" stroke-linecap="butt" stroke-linejoin="round" stroke-width="12" vectornator:layerName="Rectangle 41"/>
<path d="M795.106 908.075L908.069 1021.04L795.106 1134L682.143 1021.04L795.106 908.075Z" fill="#ffffff" fill-opacity="0" fill-rule="nonzero" opacity="1" stroke="#000000" stroke-linecap="butt" stroke-linejoin="round" stroke-width="12" vectornator:layerName="Rectangle 42"/>
<path d="M682.143 795.112L795.106 908.075L682.143 1021.04L569.181 908.075L682.143 795.112Z" fill="#ffffff" fill-opacity="0" fill-rule="nonzero" opacity="1" stroke="#000000" stroke-linecap="butt" stroke-linejoin="round" stroke-width="12" vectornator:layerName="Rectangle 43"/>
<path d="M569.181 682.149L682.143 795.112L569.181 908.075L456.218 795.112L569.181 682.149Z" fill="#ffffff" fill-opacity="0" fill-rule="nonzero" opacity="1" stroke="#000000" stroke-linecap="butt" stroke-linejoin="round" stroke-width="12" vectornator:layerName="Rectangle 44"/>
<path d="M456.218 569.187L569.181 682.149L456.218 795.112L343.256 682.149L456.218 569.187Z" fill="#ffffff" fill-opacity="0" fill-rule="nonzero" opacity="1" stroke="#000000" stroke-linecap="butt" stroke-linejoin="round" stroke-width="12" vectornator:layerName="Rectangle 45"/>
<path d="M1472.88 908.075L1585.84 1021.04L1472.88 1134L1359.92 1021.04L1472.88 908.075Z" fill="#ffffff" fill-opacity="0" fill-rule="nonzero" opacity="1" stroke="#000000" stroke-linecap="butt" stroke-linejoin="round" stroke-width="12" vectornator:layerName="Rectangle 46"/>
<path d="M1585.84 795.112L1698.81 908.075L1585.84 1021.04L1472.88 908.075L1585.84 795.112Z" fill="#ffffff" fill-opacity="0" fill-rule="nonzero" opacity="1" stroke="#000000" stroke-linecap="butt" stroke-linejoin="round" stroke-width="12" vectornator:layerName="Rectangle 47"/>
<path d="M1698.81 682.149L1811.77 795.112L1698.81 908.075L1585.84 795.112L1698.81 682.149Z" fill="#ffffff" fill-opacity="0" fill-rule="nonzero" opacity="1" stroke="#000000" stroke-linecap="butt" stroke-linejoin="round" stroke-width="12" vectornator:layerName="Rectangle 48"/>
<path d="M1811.77 569.187L1924.73 682.149L1811.77 795.112L1698.81 682.149L1811.77 569.187Z" fill="#ffffff" fill-opacity="0" fill-rule="nonzero" opacity="1" stroke="#000000" stroke-linecap="butt" stroke-linejoin="round" stroke-width="12" vectornator:layerName="Rectangle 49"/>
<path d="M1698.81 230.299L1811.77 343.261L1698.81 456.224L1585.84 343.261L1698.81 230.299Z" fill="#ffffff" fill-opacity="0" fill-rule="nonzero" opacity="1" stroke="#000000" stroke-linecap="butt" stroke-linejoin="round" stroke-width="12" vectornator:layerName="Rectangle 50"/>
<path d="M1811.77 343.261L1924.73 456.224L1811.77 569.187L1698.81 456.224L1811.77 343.261Z" fill="#ffffff" fill-opacity="0" fill-rule="nonzero" opacity="1" stroke="#000000" stroke-linecap="butt" stroke-linejoin="round" stroke-width="12" vectornator:layerName="Rectangle 51"/>
<path d="M569.181 230.299L682.143 343.261L569.181 456.224L456.218 343.261L569.181 230.299Z" fill="#ffffff" fill-opacity="0" fill-rule="nonzero" opacity="1" stroke="#000000" stroke-linecap="butt" stroke-linejoin="round" stroke-width="12" vectornator:layerName="Rectangle 52"/>
<path d="M682.143 117.336L795.106 230.299L682.143 343.261L569.181 230.299L682.143 117.336Z" fill="#ffffff" fill-opacity="0" fill-rule="nonzero" opacity="1" stroke="#000000" stroke-linecap="butt" stroke-linejoin="round" stroke-width="12" vectornator:layerName="Rectangle 54"/>
<path d="M343.256 456.224L456.218 569.187L343.256 682.149L230.293 569.187L343.256 456.224Z" fill="#ffffff" fill-opacity="0" fill-rule="nonzero" opacity="1" stroke="#000000" stroke-linecap="butt" stroke-linejoin="round" stroke-width="12" vectornator:layerName="Rectangle 55"/>
<path d="M230.293 569.187L343.256 682.149L230.293 795.112L117.33 682.149L230.293 569.187Z" fill="#ffffff" fill-opacity="0" fill-rule="nonzero" opacity="1" stroke="#000000" stroke-linecap="butt" stroke-linejoin="round" stroke-width="12" vectornator:layerName="Rectangle 56"/>
<path d="M343.256 682.149L456.218 795.112L343.256 908.075L230.293 795.112L343.256 682.149Z" fill="#ffffff" fill-opacity="0" fill-rule="nonzero" opacity="1" stroke="#000000" stroke-linecap="butt" stroke-linejoin="round" stroke-width="12" vectornator:layerName="Rectangle 57"/>
<path d="M456.218 795.112L569.181 908.075L456.218 1021.04L343.256 908.075L456.218 795.112Z" fill="#ffffff" fill-opacity="0" fill-rule="nonzero" opacity="1" stroke="#000000" stroke-linecap="butt" stroke-linejoin="round" stroke-width="12" vectornator:layerName="Rectangle 58"/>
<path d="M569.181 908.075L682.143 1021.04L569.181 1134L456.218 1021.04L569.181 908.075Z" fill="#ffffff" fill-opacity="0" fill-rule="nonzero" opacity="1" stroke="#000000" stroke-linecap="butt" stroke-linejoin="round" stroke-width="12" vectornator:layerName="Rectangle 59"/>
<path d="M682.143 1021.04L795.106 1134L682.143 1246.96L569.181 1134L682.143 1021.04Z" fill="#ffffff" fill-opacity="0" fill-rule="nonzero" opacity="1" stroke="#000000" stroke-linecap="butt" stroke-linejoin="round" stroke-width="12" vectornator:layerName="Rectangle 60"/>
<path d="M795.106 1134L908.069 1246.96L795.106 1359.93L682.143 1246.96L795.106 1134Z" fill="#ffffff" fill-opacity="0" fill-rule="nonzero" opacity="1" stroke="#000000" stroke-linecap="butt" stroke-linejoin="round" stroke-width="12" vectornator:layerName="Rectangle 61"/>
<path d="M908.069 1246.96L1021.03 1359.93L908.069 1472.89L795.106 1359.93L908.069 1246.96Z" fill="#ffffff" fill-opacity="0" fill-rule="nonzero" opacity="1" stroke="#000000" stroke-linecap="butt" stroke-linejoin="round" stroke-width="12" vectornator:layerName="Rectangle 62"/>
<path d="M1021.03 1359.93L1133.99 1472.89L1021.03 1585.85L908.069 1472.89L1021.03 1359.93Z" fill="#ffffff" fill-opacity="0" fill-rule="nonzero" opacity="1" stroke="#000000" stroke-linecap="butt" stroke-linejoin="round" stroke-width="12" vectornator:layerName="Rectangle 63"/>
<path d="M1133.99 1472.89L1246.96 1585.85L1133.99 1698.81L1021.03 1585.85L1133.99 1472.89Z" fill="#ffffff" fill-opacity="0" fill-rule="nonzero" opacity="1" stroke="#000000" stroke-linecap="butt" stroke-linejoin="round" stroke-width="12" vectornator:layerName="Rectangle 64"/>
<path d="M1246.96 1359.93L1359.92 1472.89L1246.96 1585.85L1133.99 1472.89L1246.96 1359.93Z" fill="#ffffff" fill-opacity="0" fill-rule="nonzero" opacity="1" stroke="#000000" stroke-linecap="butt" stroke-linejoin="round" stroke-width="12" vectornator:layerName="Rectangle 65"/>
<path d="M1359.92 1246.96L1472.88 1359.93L1359.92 1472.89L1246.96 1359.93L1359.92 1246.96Z" fill="#ffffff" fill-opacity="0" fill-rule="nonzero" opacity="1" stroke="#000000" stroke-linecap="butt" stroke-linejoin="round" stroke-width="12" vectornator:layerName="Rectangle 66"/>
<path d="M1472.88 1134L1585.84 1246.96L1472.88 1359.93L1359.92 1246.96L1472.88 1134Z" fill="#ffffff" fill-opacity="0" fill-rule="nonzero" opacity="1" stroke="#000000" stroke-linecap="butt" stroke-linejoin="round" stroke-width="12" vectornator:layerName="Rectangle 67"/>
<path d="M1585.84 1021.04L1698.81 1134L1585.84 1246.96L1472.88 1134L1585.84 1021.04Z" fill="#ffffff" fill-opacity="0" fill-rule="nonzero" opacity="1" stroke="#000000" stroke-linecap="butt" stroke-linejoin="round" stroke-width="12" vectornator:layerName="Rectangle 68"/>
<path d="M1698.81 908.075L1811.77 1021.04L1698.81 1134L1585.84 1021.04L1698.81 908.075Z" fill="#ffffff" fill-opacity="0" fill-rule="nonzero" opacity="1" stroke="#000000" stroke-linecap="butt" stroke-linejoin="round" stroke-width="12" vectornator:layerName="Rectangle 69"/>
<path d="M1811.77 795.112L1924.73 908.075L1811.77 1021.04L1698.81 908.075L1811.77 795.112Z" fill="#ffffff" fill-opacity="0" fill-rule="nonzero" opacity="1" stroke="#000000" stroke-linecap="butt" stroke-linejoin="round" stroke-width="12" vectornator:layerName="Rectangle 70"/>
<path d="M1924.73 682.149L2037.7 795.112L1924.73 908.075L1811.77 795.112L1924.73 682.149Z" fill="#ffffff" fill-opacity="0" fill-rule="nonzero" opacity="1" stroke="#000000" stroke-linecap="butt" stroke-linejoin="round" stroke-width="12" vectornator:layerName="Rectangle 71"/>
<path d="M2037.7 569.187L2150.66 682.149L2037.7 795.112L1924.73 682.149L2037.7 569.187Z" fill="#ffffff" fill-opacity="0" fill-rule="nonzero" opacity="1" stroke="#000000" stroke-linecap="butt" stroke-linejoin="round" stroke-width="12" vectornator:layerName="Rectangle 72"/>
<path d="M1924.73 456.224L2037.7 569.187L1924.73 682.149L1811.77 569.187L1924.73 456.224Z" fill="#ffffff" fill-opacity="0" fill-rule="nonzero" opacity="1" stroke="#000000" stroke-linecap="butt" stroke-linejoin="round" stroke-width="12" vectornator:layerName="Rectangle 73"/>
<path d="M1585.84 117.336L1698.81 230.299L1585.84 343.261L1472.88 230.299L1585.84 117.336Z" fill="#ffffff" fill-opacity="0" fill-rule="nonzero" opacity="1" stroke="#000000" stroke-linecap="butt" stroke-linejoin="round" stroke-width="12" vectornator:layerName="Rectangle 74"/>
<path d="M1811.77 117.336L1924.73 230.299L1811.77 343.261L1698.81 230.299L1811.77 117.336Z" fill="#ffffff" fill-opacity="0" fill-rule="nonzero" opacity="1" stroke="#000000" stroke-linecap="butt" stroke-linejoin="round" stroke-width="12" vectornator:layerName="Rectangle 75"/>
<path d="M1924.73 230.299L2037.7 343.261L1924.73 456.224L1811.77 343.261L1924.73 230.299Z" fill="#ffffff" fill-opacity="0" fill-rule="nonzero" opacity="1" stroke="#000000" stroke-linecap="butt" stroke-linejoin="round" stroke-width="12" vectornator:layerName="Rectangle 76"/>
<path d="M2037.7 343.261L2150.66 456.224L2037.7 569.187L1924.73 456.224L2037.7 343.261Z" fill="#ffffff" fill-opacity="0" fill-rule="nonzero" opacity="1" stroke="#000000" stroke-linecap="butt" stroke-linejoin="round" stroke-width="12" vectornator:layerName="Rectangle 77"/>
<path d="M2150.66 456.224L2263.62 569.187L2150.66 682.149L2037.7 569.187L2150.66 456.224Z" fill="#ffffff" fill-opacity="0" fill-rule="nonzero" opacity="1" stroke="#000000" stroke-linecap="butt" stroke-linejoin="round" stroke-width="12" vectornator:layerName="Rectangle 81"/>
<path d="M117.33 456.224L230.293 569.187L117.33 682.149L4.36751 569.187L117.33 456.224Z" fill="#ffffff" fill-opacity="0" fill-rule="nonzero" opacity="1" stroke="#000000" stroke-linecap="butt" stroke-linejoin="round" stroke-width="12" vectornator:layerName="Rectangle 84"/>
<path d="M117.33 682.149L230.293 795.112L117.33 908.075L4.36751 795.112L117.33 682.149Z" fill="#ffffff" fill-opacity="0" fill-rule="nonzero" opacity="1" stroke="#000000" stroke-linecap="butt" stroke-linejoin="round" stroke-width="12" vectornator:layerName="Rectangle 85"/>
<path d="M343.256 908.075L456.218 1021.04L343.256 1134L230.293 1021.04L343.256 908.075Z" fill="#ffffff" fill-opacity="0" fill-rule="nonzero" opacity="1" stroke="#000000" stroke-linecap="butt" stroke-linejoin="round" stroke-width="12" vectornator:layerName="Rectangle 86"/>
<path d="M230.293 795.112L343.256 908.075L230.293 1021.04L117.33 908.075L230.293 795.112Z" fill="#ffffff" fill-opacity="0" fill-rule="nonzero" opacity="1" stroke="#000000" stroke-linecap="butt" stroke-linejoin="round" stroke-width="12" vectornator:layerName="Rectangle 89"/>
<path d="M117.33 908.075L230.293 1021.04L117.33 1134L4.36751 1021.04L117.33 908.075Z" fill="#ffffff" fill-opacity="0" fill-rule="nonzero" opacity="1" stroke="#000000" stroke-linecap="butt" stroke-linejoin="round" stroke-width="12" vectornator:layerName="Rectangle 106"/>
<path d="M230.293 1021.04L343.256 1134L230.293 1246.96L117.33 1134L230.293 1021.04Z" fill="#ffffff" fill-opacity="0" fill-rule="nonzero" opacity="1" stroke="#000000" stroke-linecap="butt" stroke-linejoin="round" stroke-width="12" vectornator:layerName="Rectangle 107"/>
<path d="M343.256 1134L456.218 1246.96L343.256 1359.93L230.293 1246.96L343.256 1134Z" fill="#ffffff" fill-opacity="0" fill-rule="nonzero" opacity="1" stroke="#000000" stroke-linecap="butt" stroke-linejoin="round" stroke-width="12" vectornator:layerName="Rectangle 108"/>
<path d="M456.218 1246.96L569.181 1359.93L456.218 1472.89L343.256 1359.93L456.218 1246.96Z" fill="#ffffff" fill-opacity="0" fill-rule="nonzero" opacity="1" stroke="#000000" stroke-linecap="butt" stroke-linejoin="round" stroke-width="12" vectornator:layerName="Rectangle 109"/>
<path d="M569.181 1359.93L682.143 1472.89L569.181 1585.85L456.218 1472.89L569.181 1359.93Z" fill="#ffffff" fill-opacity="0" fill-rule="nonzero" opacity="1" stroke="#000000" stroke-linecap="butt" stroke-linejoin="round" stroke-width="12" vectornator:layerName="Rectangle 110"/>
<path d="M682.143 1472.89L795.106 1585.85L682.143 1698.81L569.181 1585.85L682.143 1472.89Z" fill="#ffffff" fill-opacity="0" fill-rule="nonzero" opacity="1" stroke="#000000" stroke-linecap="butt" stroke-linejoin="round" stroke-width="12" vectornator:layerName="Rectangle 111"/>
<path d="M795.106 1585.85L908.069 1698.81L795.106 1811.78L682.143 1698.81L795.106 1585.85Z" fill="#ffffff" fill-opacity="0" fill-rule="nonzero" opacity="1" stroke="#000000" stroke-linecap="butt" stroke-linejoin="round" stroke-width="12" vectornator:layerName="Rectangle 112"/>
<path d="M908.069 1698.81L1021.03 1811.78L908.069 1924.74L795.106 1811.78L908.069 1698.81Z" fill="#ffffff" fill-opacity="0" fill-rule="nonzero" opacity="1" stroke="#000000" stroke-linecap="butt" stroke-linejoin="round" stroke-width="12" vectornator:layerName="Rectangle 113"/>
<path d="M1021.03 1811.78L1133.99 1924.74L1021.03 2037.7L908.069 1924.74L1021.03 1811.78Z" fill="#ffffff" fill-opacity="0" fill-rule="nonzero" opacity="1" stroke="#000000" stroke-linecap="butt" stroke-linejoin="round" stroke-width="12" vectornator:layerName="Rectangle 114"/>
<path d="M1133.99 1924.74L1246.96 2037.7L1133.99 2150.66L1021.03 2037.7L1133.99 1924.74Z" fill="#ffffff" fill-opacity="0" fill-rule="nonzero" opacity="1" stroke="#000000" stroke-linecap="butt" stroke-linejoin="round" stroke-width="12" vectornator:layerName="Rectangle 115"/>
<path d="M1246.96 1811.78L1359.92 1924.74L1246.96 2037.7L1133.99 1924.74L1246.96 1811.78Z" fill="#ffffff" fill-opacity="0" fill-rule="nonzero" opacity="1" stroke="#000000" stroke-linecap="butt" stroke-linejoin="round" stroke-width="12" vectornator:layerName="Rectangle 116"/>
<path d="M1359.92 1698.81L1472.88 1811.78L1359.92 1924.74L1246.96 1811.78L1359.92 1698.81Z" fill="#ffffff" fill-opacity="0" fill-rule="nonzero" opacity="1" stroke="#000000" stroke-linecap="butt" stroke-linejoin="round" stroke-width="12" vectornator:layerName="Rectangle 117"/>
<path d="M1472.88 1585.85L1585.84 1698.81L1472.88 1811.78L1359.92 1698.81L1472.88 1585.85Z" fill="#ffffff" fill-opacity="0" fill-rule="nonzero" opacity="1" stroke="#000000" stroke-linecap="butt" stroke-linejoin="round" stroke-width="12" vectornator:layerName="Rectangle 118"/>
<path d="M1585.84 1472.89L1698.81 1585.85L1585.84 1698.81L1472.88 1585.85L1585.84 1472.89Z" fill="#ffffff" fill-opacity="0" fill-rule="nonzero" opacity="1" stroke="#000000" stroke-linecap="butt" stroke-linejoin="round" stroke-width="12" vectornator:layerName="Rectangle 119"/>
<path d="M1698.81 1359.93L1811.77 1472.89L1698.81 1585.85L1585.84 1472.89L1698.81 1359.93Z" fill="#ffffff" fill-opacity="0" fill-rule="nonzero" opacity="1" stroke="#000000" stroke-linecap="butt" stroke-linejoin="round" stroke-width="12" vectornator:layerName="Rectangle 120"/>
<path d="M1811.77 1246.96L1924.73 1359.93L1811.77 1472.89L1698.81 1359.93L1811.77 1246.96Z" fill="#ffffff" fill-opacity="0" fill-rule="nonzero" opacity="1" stroke="#000000" stroke-linecap="butt" stroke-linejoin="round" stroke-width="12" vectornator:layerName="Rectangle 121"/>
<path d="M1924.73 1134L2037.7 1246.96L1924.73 1359.93L1811.77 1246.96L1924.73 1134Z" fill="#ffffff" fill-opacity="0" fill-rule="nonzero" opacity="1" stroke="#000000" stroke-linecap="butt" stroke-linejoin="round" stroke-width="12" vectornator:layerName="Rectangle 122"/>
<path d="M2037.7 1021.04L2150.66 1134L2037.7 1246.96L1924.73 1134L2037.7 1021.04Z" fill="#ffffff" fill-opacity="0" fill-rule="nonzero" opacity="1" stroke="#000000" stroke-linecap="butt" stroke-linejoin="round" stroke-width="12" vectornator:layerName="Rectangle 123"/>
<path d="M2150.66 908.075L2263.62 1021.04L2150.66 1134L2037.7 1021.04L2150.66 908.075Z" fill="#ffffff" fill-opacity="0" fill-rule="nonzero" opacity="1" stroke="#000000" stroke-linecap="butt" stroke-linejoin="round" stroke-width="12" vectornator:layerName="Rectangle 124"/>
<path d="M569.181 1134L682.143 1246.96L569.181 1359.93L456.218 1246.96L569.181 1134Z" fill="#ffffff" fill-opacity="0" fill-rule="nonzero" opacity="1" stroke="#000000" stroke-linecap="butt" stroke-linejoin="round" stroke-width="12" vectornator:layerName="Rectangle 87"/>
<path d="M456.218 1021.04L569.181 1134L456.218 1246.96L343.256 1134L456.218 1021.04Z" fill="#ffffff" fill-opacity="0" fill-rule="nonzero" opacity="1" stroke="#000000" stroke-linecap="butt" stroke-linejoin="round" stroke-width="12" vectornator:layerName="Rectangle 90"/>
<path d="M682.143 1246.96L795.106 1359.93L682.143 1472.89L569.181 1359.93L682.143 1246.96Z" fill="#ffffff" fill-opacity="0" fill-rule="nonzero" opacity="1" stroke="#000000" stroke-linecap="butt" stroke-linejoin="round" stroke-width="12" vectornator:layerName="Rectangle 91"/>
<path d="M795.106 1359.93L908.069 1472.89L795.106 1585.85L682.143 1472.89L795.106 1359.93Z" fill="#ffffff" fill-opacity="0" fill-rule="nonzero" opacity="1" stroke="#000000" stroke-linecap="butt" stroke-linejoin="round" stroke-width="12" vectornator:layerName="Rectangle 92"/>
<path d="M908.069 1472.89L1021.03 1585.85L908.069 1698.81L795.106 1585.85L908.069 1472.89Z" fill="#ffffff" fill-opacity="0" fill-rule="nonzero" opacity="1" stroke="#000000" stroke-linecap="butt" stroke-linejoin="round" stroke-width="12" vectornator:layerName="Rectangle 93"/>
<path d="M1021.03 1585.85L1133.99 1698.81L1021.03 1811.78L908.069 1698.81L1021.03 1585.85Z" fill="#ffffff" fill-opacity="0" fill-rule="nonzero" opacity="1" stroke="#000000" stroke-linecap="butt" stroke-linejoin="round" stroke-width="12" vectornator:layerName="Rectangle 94"/>
<path d="M1133.99 1698.81L1246.96 1811.78L1133.99 1924.74L1021.03 1811.78L1133.99 1698.81Z" fill="#ffffff" fill-opacity="0" fill-rule="nonzero" opacity="1" stroke="#000000" stroke-linecap="butt" stroke-linejoin="round" stroke-width="12" vectornator:layerName="Rectangle 95"/>
<path d="M1246.96 1585.85L1359.92 1698.81L1246.96 1811.78L1133.99 1698.81L1246.96 1585.85Z" fill="#ffffff" fill-opacity="0" fill-rule="nonzero" opacity="1" stroke="#000000" stroke-linecap="butt" stroke-linejoin="round" stroke-width="12" vectornator:layerName="Rectangle 96"/>
<path d="M1246.96 1585.85L1359.92 1698.81L1246.96 1811.78L1133.99 1698.81L1246.96 1585.85Z" fill="#ffffff" fill-opacity="0" fill-rule="nonzero" opacity="1" stroke="#000000" stroke-linecap="butt" stroke-linejoin="round" stroke-width="12" vectornator:layerName="Rectangle 97"/>
<path d="M1359.92 1472.89L1472.88 1585.85L1359.92 1698.81L1246.96 1585.85L1359.92 1472.89Z" fill="#ffffff" fill-opacity="0" fill-rule="nonzero" opacity="1" stroke="#000000" stroke-linecap="butt" stroke-linejoin="round" stroke-width="12" vectornator:layerName="Rectangle 98"/>
<path d="M1472.88 1359.93L1585.84 1472.89L1472.88 1585.85L1359.92 1472.89L1472.88 1359.93Z" fill="#ffffff" fill-opacity="0" fill-rule="nonzero" opacity="1" stroke="#000000" stroke-linecap="butt" stroke-linejoin="round" stroke-width="12" vectornator:layerName="Rectangle 99"/>
<path d="M1585.84 1246.96L1698.81 1359.93L1585.84 1472.89L1472.88 1359.93L1585.84 1246.96Z" fill="#ffffff" fill-opacity="0" fill-rule="nonzero" opacity="1" stroke="#000000" stroke-linecap="butt" stroke-linejoin="round" stroke-width="12" vectornator:layerName="Rectangle 100"/>
<path d="M1698.81 1134L1811.77 1246.96L1698.81 1359.93L1585.84 1246.96L1698.81 1134Z" fill="#ffffff" fill-opacity="0" fill-rule="nonzero" opacity="1" stroke="#000000" stroke-linecap="butt" stroke-linejoin="round" stroke-width="12" vectornator:layerName="Rectangle 101"/>
<path d="M1811.77 1021.04L1924.73 1134L1811.77 1246.96L1698.81 1134L1811.77 1021.04Z" fill="#ffffff" fill-opacity="0" fill-rule="nonzero" opacity="1" stroke="#000000" stroke-linecap="butt" stroke-linejoin="round" stroke-width="12" vectornator:layerName="Rectangle 102"/>
<path d="M1924.73 908.075L2037.7 1021.04L1924.73 1134L1811.77 1021.04L1924.73 908.075Z" fill="#ffffff" fill-opacity="0" fill-rule="nonzero" opacity="1" stroke="#000000" stroke-linecap="butt" stroke-linejoin="round" stroke-width="12" vectornator:layerName="Rectangle 103"/>
<path d="M2037.7 795.112L2150.66 908.075L2037.7 1021.04L1924.73 908.075L2037.7 795.112Z" fill="#ffffff" fill-opacity="0" fill-rule="nonzero" opacity="1" stroke="#000000" stroke-linecap="butt" stroke-linejoin="round" stroke-width="12" vectornator:layerName="Rectangle 104"/>
<path d="M2150.66 682.149L2263.62 795.112L2150.66 908.075L2037.7 795.112L2150.66 682.149Z" fill="#ffffff" fill-opacity="0" fill-rule="nonzero" opacity="1" stroke="#000000" stroke-linecap="butt" stroke-linejoin="round" stroke-width="12" vectornator:layerName="Rectangle 105"/>
<path d="M456.218 117.336L569.181 230.299L456.218 343.261L343.256 230.299L456.218 117.336Z" fill="#ffffff" fill-opacity="0" fill-rule="nonzero" opacity="1" stroke="#000000" stroke-linecap="butt" stroke-linejoin="round" stroke-width="12" vectornator:layerName="Rectangle 78"/>
<path d="M343.256 230.299L456.218 343.261L343.256 456.224L230.293 343.261L343.256 230.299Z" fill="#ffffff" fill-opacity="0" fill-rule="nonzero" opacity="1" stroke="#000000" stroke-linecap="butt" stroke-linejoin="round" stroke-width="12" vectornator:layerName="Rectangle 79"/>
<path d="M230.293 343.261L343.256 456.224L230.293 569.187L117.33 456.224L230.293 343.261Z" fill="#ffffff" fill-opacity="0" fill-rule="nonzero" opacity="1" stroke="#000000" stroke-linecap="butt" stroke-linejoin="round" stroke-width="12" vectornator:layerName="Rectangle 80"/>
<path d="M456.218 343.261L569.181 456.224L456.218 569.187L343.256 456.224L456.218 343.261Z" fill="#ffffff" fill-opacity="0" fill-rule="nonzero" opacity="1" stroke="#000000" stroke-linecap="butt" stroke-linejoin="round" stroke-width="12" vectornator:layerName="Rectangle 53"/>
</g>
</g>
</svg>
